<?xml version="1.0" encoding="utf-8"?>
<svg viewBox="-25.35 -149.335 570.667 771.666" xmlns="http://www.w3.org/2000/svg" xmlns:bx="https://boxy-svg.com">
  <rect width="47.059" height="70.041" x="235.294" y="76.605" style="fill: rgb(241, 241, 241); stroke: rgb(255, 255, 255); stroke-width: 3.22642px;" transform="matrix(1.515833, 0, 0, 2.203463, -382.016266, -318.131256)"/>
  <rect width="47.059" height="70.041" x="282.353" y="76.605" style="fill: rgb(241, 241, 241); stroke: rgb(255, 255, 255); stroke-width: 3.22642px;" transform="matrix(1.515833, 0, 0, 2.203463, -382.016266, -318.131256)"/>
  <rect width="47.059" height="70.041" x="329.412" y="76.605" style="fill: rgb(241, 241, 241); stroke: rgb(255, 255, 255); stroke-width: 3.22642px;" transform="matrix(1.515833, 0, 0, 2.203463, -382.016266, -318.131256)"/>
  <rect width="47.059" height="70.041" x="376.471" y="76.605" style="fill: rgb(241, 241, 241); stroke: rgb(255, 255, 255); stroke-width: 3.22642px;" transform="matrix(1.515833, 0, 0, 2.203463, -382.016266, -318.131256)"/>
  <rect width="47.059" height="70.041" x="423.529" y="76.605" style="fill: rgb(241, 241, 241); stroke: rgb(255, 255, 255); stroke-width: 3.22642px;" transform="matrix(1.515833, 0, 0, 2.203463, -382.016266, -318.131256)"/>
  <rect width="47.059" height="70.041" x="470.588" y="76.605" style="fill: rgb(241, 241, 241); stroke: rgb(255, 255, 255); stroke-width: 3.22642px;" transform="matrix(1.515833, 0, 0, 2.203463, -382.016266, -318.131256)"/>
  <rect width="47.059" height="70.041" x="517.647" y="76.605" style="fill: rgb(241, 241, 241); stroke: rgb(255, 255, 255); stroke-width: 3.22642px;" transform="matrix(1.515833, 0, 0, 2.203463, -382.016266, -318.131256)"/>
  <rect width="47.059" height="70.041" x="564.706" y="76.605" style="fill: rgb(241, 241, 241); stroke: rgb(255, 255, 255); stroke-width: 3.22642px;" transform="matrix(1.515833, 0, 0, 2.203463, -382.016266, -318.131256)"/>
  <rect width="47.059" height="70.041" x="235.294" y="146.646" style="fill: rgb(241, 241, 241); stroke: rgb(255, 255, 255); stroke-width: 3.22642px;" transform="matrix(1.515833, 0, 0, 2.203463, -382.016266, -318.131256)"/>
  <rect width="47.059" height="70.041" x="282.353" y="146.646" style="fill: rgb(241, 241, 241); stroke: rgb(255, 255, 255); stroke-width: 3.22642px;" transform="matrix(1.515833, 0, 0, 2.203463, -382.016266, -318.131256)"/>
  <rect width="47.059" height="70.041" x="329.412" y="146.646" style="fill: rgb(241, 241, 241); stroke: rgb(255, 255, 255); stroke-width: 3.22642px;" transform="matrix(1.515833, 0, 0, 2.203463, -382.016266, -318.131256)"/>
  <rect width="47.059" height="70.041" x="376.471" y="146.646" style="fill: rgb(241, 241, 241); stroke: rgb(255, 255, 255); stroke-width: 3.22642px;" transform="matrix(1.515833, 0, 0, 2.203463, -382.016266, -318.131256)"/>
  <rect width="47.059" height="70.041" x="423.529" y="146.646" style="fill: rgb(241, 241, 241); stroke: rgb(255, 255, 255); stroke-width: 3.22642px;" transform="matrix(1.515833, 0, 0, 2.203463, -382.016266, -318.131256)"/>
  <rect width="47.059" height="70.041" x="470.588" y="146.646" style="fill: rgb(241, 241, 241); stroke: rgb(255, 255, 255); stroke-width: 3.22642px;" transform="matrix(1.515833, 0, 0, 2.203463, -382.016266, -318.131256)"/>
  <rect width="47.059" height="70.041" x="517.647" y="146.646" style="fill: rgb(241, 241, 241); stroke: rgb(255, 255, 255); stroke-width: 3.22642px;" transform="matrix(1.515833, 0, 0, 2.203463, -382.016266, -318.131256)"/>
  <rect width="47.059" height="70.041" x="564.706" y="146.646" style="fill: rgb(241, 241, 241); stroke: rgb(255, 255, 255); stroke-width: 3.22642px;" transform="matrix(1.515833, 0, 0, 2.203463, -382.016266, -318.131256)"/>
  <rect width="47.059" height="70.041" x="235.294" y="216.687" style="fill: rgb(241, 241, 241); stroke: rgb(255, 255, 255); stroke-width: 3.22642px;" transform="matrix(1.515833, 0, 0, 2.203463, -382.016266, -318.131256)"/>
  <rect width="47.059" height="70.041" x="282.353" y="216.687" style="fill: rgb(241, 241, 241); stroke: rgb(255, 255, 255); stroke-width: 3.22642px;" transform="matrix(1.515833, 0, 0, 2.203463, -382.016266, -318.131256)"/>
  <rect width="47.059" height="70.041" x="329.412" y="216.687" style="fill: rgb(241, 241, 241); stroke: rgb(255, 255, 255); stroke-width: 3.22642px;" transform="matrix(1.515833, 0, 0, 2.203463, -382.016266, -318.131256)"/>
  <rect width="47.059" height="70.041" x="376.471" y="216.687" style="fill: rgb(241, 241, 241); stroke: rgb(255, 255, 255); stroke-width: 3.22642px;" transform="matrix(1.515833, 0, 0, 2.203463, -382.016266, -318.131256)"/>
  <rect width="47.059" height="70.041" x="423.529" y="216.687" style="fill: rgb(241, 241, 241); stroke: rgb(255, 255, 255); stroke-width: 3.22642px;" transform="matrix(1.515833, 0, 0, 2.203463, -382.016266, -318.131256)"/>
  <rect width="47.059" height="70.041" x="470.588" y="216.687" style="fill: rgb(241, 241, 241); stroke: rgb(255, 255, 255); stroke-width: 3.22642px;" transform="matrix(1.515833, 0, 0, 2.203463, -382.016266, -318.131256)"/>
  <rect width="47.059" height="70.041" x="517.647" y="216.687" style="fill: rgb(241, 241, 241); stroke: rgb(255, 255, 255); stroke-width: 3.22642px;" transform="matrix(1.515833, 0, 0, 2.203463, -382.016266, -318.131256)"/>
  <rect width="47.059" height="70.041" x="564.706" y="216.687" style="fill: rgb(241, 241, 241); stroke: rgb(255, 255, 255); stroke-width: 3.22642px;" transform="matrix(1.515833, 0, 0, 2.203463, -382.016266, -318.131256)"/>
  <rect width="47.059" height="70.041" x="235.294" y="286.729" style="fill: rgb(241, 241, 241); stroke: rgb(255, 255, 255); stroke-width: 3.22642px;" transform="matrix(1.515833, 0, 0, 2.203463, -382.016266, -318.131256)"/>
  <rect width="47.059" height="70.041" x="282.353" y="286.729" style="fill: rgb(241, 241, 241); stroke: rgb(255, 255, 255); stroke-width: 3.22642px;" transform="matrix(1.515833, 0, 0, 2.203463, -382.016266, -318.131256)"/>
  <rect width="47.059" height="70.041" x="329.412" y="286.729" style="fill: rgb(241, 241, 241); stroke: rgb(255, 255, 255); stroke-width: 3.22642px;" transform="matrix(1.515833, 0, 0, 2.203463, -382.016266, -318.131256)"/>
  <rect width="47.059" height="70.041" x="376.471" y="286.729" style="fill: rgb(241, 241, 241); stroke: rgb(255, 255, 255); stroke-width: 3.22642px;" transform="matrix(1.515833, 0, 0, 2.203463, -382.016266, -318.131256)"/>
  <rect width="47.059" height="70.041" x="423.529" y="286.729" style="fill: rgb(241, 241, 241); stroke: rgb(255, 255, 255); stroke-width: 3.22642px;" transform="matrix(1.515833, 0, 0, 2.203463, -382.016266, -318.131256)"/>
  <rect width="47.059" height="70.041" x="470.588" y="286.729" style="fill: rgb(241, 241, 241); stroke: rgb(255, 255, 255); stroke-width: 3.22642px;" transform="matrix(1.515833, 0, 0, 2.203463, -382.016266, -318.131256)"/>
  <rect width="47.059" height="70.041" x="517.647" y="286.729" style="fill: rgb(241, 241, 241); stroke: rgb(255, 255, 255); stroke-width: 3.22642px;" transform="matrix(1.515833, 0, 0, 2.203463, -382.016266, -318.131256)"/>
  <rect width="47.059" height="70.041" x="564.706" y="286.729" style="fill: rgb(241, 241, 241); stroke: rgb(255, 255, 255); stroke-width: 3.22642px;" transform="matrix(1.515833, 0, 0, 2.203463, -382.016266, -318.131256)"/>
  <rect width="47.059" height="70.041" x="235.294" y="356.77" style="fill: rgb(241, 241, 241); stroke: rgb(255, 255, 255); stroke-width: 3.22642px;" transform="matrix(1.515833, 0, 0, 2.203463, -382.016266, -318.131256)"/>
  <rect width="47.059" height="70.041" x="282.353" y="356.77" style="fill: rgb(241, 241, 241); stroke: rgb(255, 255, 255); stroke-width: 3.22642px;" transform="matrix(1.515833, 0, 0, 2.203463, -382.016266, -318.131256)"/>
  <rect width="47.059" height="70.041" x="329.412" y="356.77" style="fill: rgb(241, 241, 241); stroke: rgb(255, 255, 255); stroke-width: 3.22642px;" transform="matrix(1.515833, 0, 0, 2.203463, -382.016266, -318.131256)"/>
  <rect width="47.059" height="70.041" x="376.471" y="356.77" style="fill: rgb(241, 241, 241); stroke: rgb(255, 255, 255); stroke-width: 3.22642px;" transform="matrix(1.515833, 0, 0, 2.203463, -382.016266, -318.131256)"/>
  <rect width="47.059" height="70.041" x="423.529" y="356.77" style="fill: rgb(241, 241, 241); stroke: rgb(255, 255, 255); stroke-width: 3.22642px;" transform="matrix(1.515833, 0, 0, 2.203463, -382.016266, -318.131256)"/>
  <rect width="47.059" height="70.041" x="470.588" y="356.77" style="fill: rgb(241, 241, 241); stroke: rgb(255, 255, 255); stroke-width: 3.22642px;" transform="matrix(1.515833, 0, 0, 2.203463, -382.016266, -318.131256)"/>
  <rect width="47.059" height="70.041" x="517.647" y="356.77" style="fill: rgb(241, 241, 241); stroke: rgb(255, 255, 255); stroke-width: 3.22642px;" transform="matrix(1.515833, 0, 0, 2.203463, -382.016266, -318.131256)"/>
  <rect width="47.059" height="70.041" x="564.706" y="356.77" style="fill: rgb(241, 241, 241); stroke: rgb(255, 255, 255); stroke-width: 3.22642px;" transform="matrix(1.515833, 0, 0, 2.203463, -382.016266, -318.131256)"/>
  <path d="M 801.6 1359.967 L 769.242 1351.878 C 766.517 1342.525 762.795 1333.596 758.191 1325.218 L 775.357 1296.608 C 778.49 1291.394 777.669 1284.714 773.369 1280.414 L 750.5 1257.545 C 746.2 1253.244 739.516 1252.421 734.297 1255.551 L 705.688 1272.715 C 697.312 1268.114 688.386 1264.391 679.031 1261.669 L 670.944 1229.309 C 669.469 1223.407 664.177 1174 658.071 1174 L 625.707 1174 C 619.593 1174 614.347 1223.407 612.878 1229.306 L 604.789 1261.669 C 595.431 1264.391 586.503 1268.114 578.132 1272.715 L 549.518 1255.551 C 544.3 1252.421 537.623 1253.244 533.32 1257.544 L 510.452 1280.412 C 506.152 1284.714 505.33 1291.394 508.461 1296.608 L 525.629 1325.218 C 521.022 1333.596 517.3 1342.525 514.575 1351.878 L 482.217 1359.967 C 476.316 1361.445 427 1366.823 427 1372.929 L 427 1405.071 C 427 1411.177 476.316 1416.559 482.217 1418.036 L 514.575 1426.124 C 517.3 1435.478 521.022 1444.408 525.629 1452.783 L 508.461 1481.391 C 505.33 1486.606 506.152 1493.29 510.455 1497.59 L 533.323 1520.456 C 537.623 1524.756 544.3 1525.579 549.518 1522.452 L 578.132 1505.286 C 586.503 1509.888 595.431 1513.61 604.789 1516.334 L 612.881 1548.694 C 614.347 1554.597 619.593 1604 625.707 1604 L 658.071 1604 C 664.177 1604 669.469 1554.597 670.944 1548.694 L 679.031 1516.334 C 688.386 1513.61 697.314 1509.888 705.688 1505.286 L 734.301 1522.452 C 739.519 1525.579 746.2 1524.756 750.5 1520.456 L 773.369 1497.59 C 777.669 1493.29 778.49 1486.61 775.359 1481.391 L 758.191 1452.783 C 762.795 1444.408 766.517 1435.478 769.242 1426.124 L 801.603 1418.036 C 807.502 1416.559 857 1411.177 857 1405.071 L 857 1372.929 C 857 1366.823 807.502 1361.445 801.6 1359.967 Z M 641.91 1442.049 C 612.661 1442.049 588.868 1418.248 588.868 1389.004 C 588.868 1359.755 612.661 1335.957 641.91 1335.957 C 671.158 1335.957 694.952 1359.755 694.952 1389.004 C 694.952 1418.248 671.158 1442.049 641.91 1442.049 Z" style="fill: rgb(0, 0, 128);" transform="matrix(1, 0, 0, 1, -382.016296, -1229.668335)" bx:origin="2.460934 0.5"/>
  <circle style="paint-order: stroke; fill: rgba(255, 255, 255, 0); stroke: rgb(255, 255, 255); stroke-width: 7px;" cx="642" cy="1389" r="87.646" transform="matrix(1, 0, 0, 1, -382.016296, -1229.668335)"/>
  <path d="M 397.733 1722.307 L 422.709 1722.307 L 437.064 1771.965 L 442.411 1793.352 L 447.758 1771.965 L 461.747 1722.307 L 486.723 1722.307 L 492.143 1821.77 L 476.249 1821.77 L 473.246 1749.846 L 473.612 1730.583 C 472.489 1733.953 471.33 1737.664 470.133 1741.716 C 468.937 1745.769 467.716 1749.98 466.471 1754.351 C 465.226 1758.721 463.981 1763.164 462.736 1767.681 C 461.491 1772.197 460.246 1776.641 459 1781.011 C 457.755 1785.381 456.535 1789.58 455.338 1793.608 C 454.142 1797.637 452.982 1801.311 451.859 1804.631 L 433.036 1804.631 L 410.624 1730.364 L 410.917 1750.139 L 408.427 1821.77 L 392.533 1821.77 L 397.733 1722.307 Z M 518.576 1734.246 C 517.209 1734.246 515.927 1734.001 514.731 1733.513 C 513.535 1733.025 512.485 1732.366 511.581 1731.536 C 510.678 1730.706 509.958 1729.741 509.421 1728.643 C 508.884 1727.544 508.615 1726.36 508.615 1725.09 C 508.615 1723.772 508.884 1722.551 509.421 1721.428 C 509.958 1720.305 510.678 1719.329 511.581 1718.499 C 512.485 1717.668 513.535 1717.021 514.731 1716.558 C 515.927 1716.094 517.209 1715.862 518.576 1715.862 C 519.943 1715.862 521.237 1716.094 522.458 1716.558 C 523.679 1717.021 524.741 1717.668 525.644 1718.499 C 526.547 1719.329 527.268 1720.305 527.805 1721.428 C 528.342 1722.551 528.61 1723.772 528.61 1725.09 C 528.61 1726.36 528.342 1727.544 527.805 1728.643 C 527.268 1729.741 526.547 1730.706 525.644 1731.536 C 524.741 1732.366 523.679 1733.025 522.458 1733.513 C 521.237 1734.001 519.943 1734.246 518.576 1734.246 Z M 510.153 1746.916 L 525.388 1746.916 L 525.388 1809.465 L 529.709 1812.541 L 529.709 1821.77 L 525.534 1821.77 L 525.388 1821.624 L 525.388 1821.77 C 520.554 1821.77 516.806 1820.793 514.145 1818.84 C 511.484 1816.887 510.153 1813.665 510.153 1809.172 L 510.153 1746.916 Z M 549.123 1760.32 L 543.337 1754.387 L 543.337 1746.111 L 556.813 1746.111 L 563.112 1751.824 L 565.236 1751.384 C 565.578 1751.091 566.372 1750.579 567.617 1749.846 C 568.862 1749.114 570.4 1748.381 572.231 1747.649 C 574.062 1746.916 576.149 1746.27 578.493 1745.708 C 580.837 1745.146 583.303 1744.866 585.891 1744.866 C 589.992 1744.866 593.642 1745.476 596.84 1746.697 C 600.039 1747.917 602.736 1749.663 604.934 1751.934 C 607.131 1754.204 608.791 1756.926 609.914 1760.1 C 611.037 1763.274 611.599 1766.838 611.599 1770.793 L 611.599 1821.77 L 595.852 1821.77 L 595.852 1772.332 C 595.852 1767.009 594.741 1763.091 592.519 1760.576 C 590.297 1758.062 586.769 1756.804 581.935 1756.804 C 579.543 1756.804 577.321 1757.012 575.27 1757.427 C 573.22 1757.842 571.413 1758.318 569.851 1758.855 C 568.044 1759.441 566.359 1760.124 564.797 1760.906 L 564.797 1821.77 L 549.123 1821.77 L 549.123 1760.32 Z M 627.854 1785.662 C 627.854 1778.679 628.831 1772.624 630.784 1767.498 C 632.737 1762.371 635.386 1758.123 638.731 1754.753 C 642.076 1751.384 645.945 1748.882 650.34 1747.246 C 654.734 1745.61 659.397 1744.792 664.329 1744.792 C 666.185 1744.792 667.845 1744.878 669.31 1745.049 C 670.774 1745.22 672.019 1745.427 673.045 1745.671 C 674.266 1745.916 675.34 1746.208 676.268 1746.55 L 676.268 1716.374 L 691.868 1716.374 L 691.868 1809.685 L 698.313 1817.156 L 698.313 1821.77 L 683.665 1821.77 L 678.611 1815.984 L 676.121 1815.984 C 675.877 1816.228 675.376 1816.741 674.62 1817.522 C 673.863 1818.303 672.789 1819.109 671.397 1819.939 C 670.005 1820.769 668.296 1821.526 666.27 1822.209 C 664.244 1822.893 661.863 1823.235 659.129 1823.235 C 655.516 1823.235 651.853 1822.502 648.143 1821.038 C 644.432 1819.573 641.075 1817.302 638.072 1814.226 C 635.069 1811.15 632.615 1807.256 630.711 1802.544 C 628.807 1797.832 627.854 1792.205 627.854 1785.662 Z M 644.261 1785.662 C 644.261 1790.203 644.737 1794.084 645.689 1797.307 C 646.641 1800.53 647.996 1803.179 649.754 1805.254 C 651.512 1807.329 653.66 1808.843 656.199 1809.795 C 658.738 1810.747 661.595 1811.223 664.768 1811.223 C 665.989 1811.223 667.283 1811.028 668.65 1810.637 C 670.018 1810.247 671.263 1809.783 672.386 1809.246 C 673.704 1808.708 674.998 1808.049 676.268 1807.268 L 676.268 1757.756 C 675.633 1757.366 674.693 1756.975 673.448 1756.584 C 672.203 1756.194 670.481 1755.999 668.284 1755.999 C 660.618 1755.999 654.698 1758.525 650.523 1763.579 C 646.348 1768.633 644.261 1775.994 644.261 1785.662 Z M 708.133 1818.401 C 708.133 1817.278 708.23 1816.057 708.426 1814.739 C 708.572 1813.616 708.804 1812.334 709.122 1810.894 C 709.439 1809.453 709.915 1807.952 710.55 1806.389 C 712.698 1807.219 714.944 1807.952 717.288 1808.586 C 719.29 1809.124 721.463 1809.624 723.807 1810.088 C 726.15 1810.552 728.47 1810.784 730.765 1810.784 C 732.815 1810.784 734.72 1810.71 736.477 1810.564 C 738.235 1810.417 739.761 1810.015 741.055 1809.355 C 742.349 1808.696 743.362 1807.695 744.095 1806.353 C 744.827 1805.01 745.193 1803.142 745.193 1800.749 C 745.193 1797.869 744.302 1795.598 742.52 1793.938 C 740.738 1792.278 737.649 1791.033 733.255 1790.203 C 728.714 1789.324 724.893 1788.152 721.792 1786.687 C 718.692 1785.222 716.177 1783.525 714.248 1781.597 C 712.32 1779.668 710.928 1777.507 710.074 1775.115 C 709.219 1772.722 708.792 1770.159 708.792 1767.424 C 708.792 1763.323 709.451 1759.832 710.769 1756.951 C 712.088 1754.07 714.004 1751.738 716.519 1749.956 C 719.034 1748.174 722.159 1746.88 725.894 1746.074 C 729.629 1745.269 733.914 1744.866 738.748 1744.866 C 742.117 1744.866 745.108 1745.098 747.72 1745.562 C 750.332 1746.025 752.518 1746.526 754.275 1747.063 C 756.326 1747.698 758.108 1748.43 759.622 1749.26 C 759.476 1750.334 759.207 1751.506 758.816 1752.776 C 758.475 1753.85 758.023 1755.071 757.461 1756.438 C 756.9 1757.805 756.155 1759.197 755.227 1760.613 C 753.909 1759.832 752.395 1759.148 750.686 1758.562 C 749.222 1758.025 747.464 1757.549 745.413 1757.134 C 743.362 1756.719 741.018 1756.511 738.382 1756.511 C 736.331 1756.511 734.439 1756.609 732.706 1756.804 C 730.972 1756.999 729.483 1757.439 728.238 1758.123 C 726.993 1758.806 726.028 1759.844 725.345 1761.235 C 724.661 1762.627 724.319 1764.519 724.319 1766.912 C 724.319 1768.083 724.478 1769.145 724.795 1770.098 C 725.113 1771.05 725.748 1771.916 726.7 1772.698 C 727.652 1773.479 728.995 1774.199 730.728 1774.858 C 732.461 1775.518 734.768 1776.165 737.649 1776.799 C 742.142 1777.776 745.889 1778.899 748.892 1780.168 C 751.895 1781.438 754.288 1782.976 756.07 1784.783 C 757.852 1786.589 759.122 1788.701 759.878 1791.118 C 760.635 1793.535 761.014 1796.404 761.014 1799.724 C 761.014 1803.289 760.452 1806.511 759.329 1809.392 C 758.206 1812.273 756.448 1814.739 754.056 1816.79 C 751.663 1818.84 748.587 1820.427 744.827 1821.55 C 741.067 1822.673 736.526 1823.235 731.204 1823.235 C 727.786 1823.235 724.673 1822.991 721.866 1822.502 C 719.058 1822.014 716.629 1821.453 714.578 1820.818 C 712.185 1820.134 710.037 1819.329 708.133 1818.401 Z M 774.192 1785.076 C 774.192 1778.044 775.047 1771.99 776.756 1766.912 C 778.465 1761.833 780.857 1757.659 783.934 1754.387 C 787.01 1751.116 790.684 1748.711 794.956 1747.173 C 799.229 1745.635 803.929 1744.866 809.056 1744.866 C 813.792 1744.866 818.028 1745.659 821.763 1747.246 C 825.498 1748.833 828.66 1751.067 831.248 1753.948 C 833.836 1756.829 835.813 1760.271 837.181 1764.275 C 838.548 1768.279 839.231 1772.698 839.231 1777.532 C 839.231 1779.192 839.158 1780.73 839.012 1782.146 C 838.865 1783.562 838.694 1784.783 838.499 1785.808 C 838.304 1787.029 838.084 1788.127 837.84 1789.104 L 789.793 1788.884 C 789.842 1793.23 790.306 1796.831 791.185 1799.687 C 792.063 1802.544 793.37 1804.802 795.103 1806.462 C 796.836 1808.123 799.021 1809.282 801.658 1809.941 C 804.295 1810.601 807.42 1810.93 811.033 1810.93 C 814.109 1810.93 816.868 1810.735 819.31 1810.344 C 821.751 1809.954 823.826 1809.49 825.535 1808.953 C 827.488 1808.367 829.246 1807.683 830.809 1806.902 C 831.541 1808.611 832.115 1810.198 832.53 1811.663 C 832.945 1813.127 833.25 1814.397 833.445 1815.471 C 833.641 1816.741 833.787 1817.864 833.885 1818.84 C 832.273 1819.67 830.32 1820.403 828.025 1821.038 C 826.072 1821.575 823.68 1822.075 820.848 1822.539 C 818.016 1823.003 814.744 1823.235 811.033 1823.235 C 805.174 1823.235 799.961 1822.576 795.396 1821.257 C 790.831 1819.939 786.973 1817.778 783.824 1814.775 C 780.674 1811.772 778.282 1807.842 776.646 1802.983 C 775.01 1798.125 774.192 1792.156 774.192 1785.076 Z M 823.558 1778.191 L 823.558 1775.701 C 823.558 1772.624 823.179 1769.902 822.422 1767.534 C 821.665 1765.166 820.628 1763.176 819.31 1761.565 C 817.991 1759.954 816.429 1758.733 814.622 1757.903 C 812.815 1757.073 810.862 1756.658 808.763 1756.658 C 805.686 1756.658 802.977 1757.061 800.633 1757.866 C 798.289 1758.672 796.324 1759.941 794.737 1761.675 C 793.15 1763.408 791.966 1765.642 791.185 1768.376 C 790.403 1771.111 790.013 1774.382 790.013 1778.191 L 823.558 1778.191 Z M 858.273 1758.269 L 848.679 1758.269 C 848.63 1757.732 848.581 1757.146 848.532 1756.511 C 848.483 1755.974 848.447 1755.339 848.422 1754.607 C 848.398 1753.874 848.386 1753.069 848.386 1752.19 C 848.386 1751.311 848.41 1750.493 848.459 1749.736 C 848.508 1748.979 848.581 1748.04 848.679 1746.916 L 858.273 1746.916 L 858.273 1735.271 L 866.696 1725.749 L 873.215 1725.749 L 873.215 1746.916 L 893.942 1746.916 C 894.04 1747.405 894.125 1747.991 894.199 1748.674 C 894.272 1749.358 894.309 1750.017 894.309 1750.652 C 894.309 1751.775 894.199 1752.8 893.979 1753.728 C 893.759 1754.656 893.527 1755.461 893.283 1756.145 C 892.99 1756.926 892.648 1757.634 892.258 1758.269 L 873.215 1758.269 L 873.215 1800.749 C 873.215 1804.314 873.813 1806.902 875.009 1808.513 C 876.206 1810.124 878.122 1810.93 880.759 1810.93 C 881.882 1810.93 883.066 1810.796 884.311 1810.527 C 885.556 1810.259 886.74 1809.929 887.863 1809.539 C 889.133 1809.099 890.427 1808.611 891.745 1808.074 C 892.722 1809.343 893.491 1810.588 894.052 1811.809 C 894.614 1813.03 895.017 1814.128 895.261 1815.105 C 895.554 1816.228 895.725 1817.278 895.773 1818.254 C 894.406 1819.182 892.868 1820.012 891.159 1820.745 C 889.645 1821.379 887.839 1821.953 885.739 1822.466 C 883.64 1822.979 881.223 1823.235 878.488 1823.235 C 874.68 1823.235 871.494 1822.759 868.93 1821.807 C 866.367 1820.854 864.291 1819.438 862.705 1817.559 C 861.118 1815.679 859.982 1813.335 859.299 1810.527 C 858.615 1807.72 858.273 1804.485 858.273 1800.823 L 858.273 1758.269 Z" style="white-space: pre; fill: rgb(0, 0, 128);" transform="matrix(1, 0, 0, 1, -382.016296, -1229.668335)"/>
</svg>