<?xml version="1.0" encoding="utf-8"?>
<svg viewBox="44.984 -55.668 430 430" xmlns="http://www.w3.org/2000/svg" xmlns:bx="https://boxy-svg.com">
  <path d="M 801.6 1359.967 L 769.242 1351.878 C 766.517 1342.525 762.795 1333.596 758.191 1325.218 L 775.357 1296.608 C 778.49 1291.394 777.669 1284.714 773.369 1280.414 L 750.5 1257.545 C 746.2 1253.244 739.516 1252.421 734.297 1255.551 L 705.688 1272.715 C 697.312 1268.114 688.386 1264.391 679.031 1261.669 L 670.944 1229.309 C 669.469 1223.407 664.177 1174 658.071 1174 L 625.707 1174 C 619.593 1174 614.347 1223.407 612.878 1229.306 L 604.789 1261.669 C 595.431 1264.391 586.503 1268.114 578.132 1272.715 L 549.518 1255.551 C 544.3 1252.421 537.623 1253.244 533.32 1257.544 L 510.452 1280.412 C 506.152 1284.714 505.33 1291.394 508.461 1296.608 L 525.629 1325.218 C 521.022 1333.596 517.3 1342.525 514.575 1351.878 L 482.217 1359.967 C 476.316 1361.445 427 1366.823 427 1372.929 L 427 1405.071 C 427 1411.177 476.316 1416.559 482.217 1418.036 L 514.575 1426.124 C 517.3 1435.478 521.022 1444.408 525.629 1452.783 L 508.461 1481.391 C 505.33 1486.606 506.152 1493.29 510.455 1497.59 L 533.323 1520.456 C 537.623 1524.756 544.3 1525.579 549.518 1522.452 L 578.132 1505.286 C 586.503 1509.888 595.431 1513.61 604.789 1516.334 L 612.881 1548.694 C 614.347 1554.597 619.593 1604 625.707 1604 L 658.071 1604 C 664.177 1604 669.469 1554.597 670.944 1548.694 L 679.031 1516.334 C 688.386 1513.61 697.314 1509.888 705.688 1505.286 L 734.301 1522.452 C 739.519 1525.579 746.2 1524.756 750.5 1520.456 L 773.369 1497.59 C 777.669 1493.29 778.49 1486.61 775.359 1481.391 L 758.191 1452.783 C 762.795 1444.408 766.517 1435.478 769.242 1426.124 L 801.603 1418.036 C 807.502 1416.559 857 1411.177 857 1405.071 L 857 1372.929 C 857 1366.823 807.502 1361.445 801.6 1359.967 Z M 641.91 1442.049 C 612.661 1442.049 588.868 1418.248 588.868 1389.004 C 588.868 1359.755 612.661 1335.957 641.91 1335.957 C 671.158 1335.957 694.952 1359.755 694.952 1389.004 C 694.952 1418.248 671.158 1442.049 641.91 1442.049 Z" style="fill: rgb(0, 0, 128);" transform="matrix(1, 0, 0, 1, -382.016296, -1229.668335)" bx:origin="2.460934 0.5"/>
  <circle style="paint-order: stroke; fill: rgba(255, 255, 255, 0); stroke: rgb(255, 255, 255); stroke-width: 7px;" cx="642" cy="1389" r="87.646" transform="matrix(1, 0, 0, 1, -382.016296, -1229.668335)"/>
</svg>